# xmcd CD database file
#
# Track frame offsets:
#	150
#	8907
#	27565
#	46755
#	66122
#	87812
#	105272
#	126267
#	143320
#	163800
#	180270
#	195420
#	214917
#	233880
#	260102
#
# Disc length: 4440 seconds
#
# Revision: 0
# Processed by: cddbd v1.5.1PL0 Copyright (c) Steve Scherf et al.
# Submitted via: CDex 1.51
#
DISCID=c211560f
DTITLE=Lead - BRAND NEW ERA
DYEAR=2004
DGENRE=JPop
TTITLE0=Go one's own way
TTITLE1=Night Deluxe
TTITLE2=Life is a party!
TTITLE3=What cha gonna?
TTITLE4=Extreme girl
TTITLE5=PRIVACY
TTITLE6=Believe in myself
TTITLE7=果てしなく広いこの世界の中で
TTITLE8=True Romance
TTITLE9=GET WILD LIFE
TTITLE10=Steppin' out
TTITLE11=Here goes! <alternative version>
TTITLE12=ファンキーデイズ！
TTITLE13=Night Deluxe Remix
TTITLE14=CCCD DATA
EXTD=YEAR: 2004
EXTT0=
EXTT1=
EXTT2=
EXTT3=
EXTT4=
EXTT5=
EXTT6=
EXTT7=
EXTT8=
EXTT9=
EXTT10=
EXTT11=
EXTT12=
EXTT13=
EXTT14=
PLAYORDER=
